HIERARCHY
ROOT newVegas:Hips
{
	OFFSET 0.000000 96.479958 0.000000
	CHANNELS 6 Xposition Yposition Zposition Xrotation Yrotation Zrotation
	JOINT newVegas:Pelvis
	{
		OFFSET 0.000000 0.000000 0.000000
		CHANNELS 3 Xrotation Yrotation Zrotation
		JOINT newVegas:LeftUpLeg
		{
			OFFSET 18.735201 -5.666702 -4.541200
			CHANNELS 3 Xrotation Yrotation Zrotation
			JOINT newVegas:LeftLeg
			{
				OFFSET -0.021200 -31.938179 0.493100
				CHANNELS 3 Xrotation Yrotation Zrotation
				JOINT newVegas:LeftFoot
				{
					OFFSET 0.021200 -31.938179 -4.336299
					CHANNELS 3 Xrotation Yrotation Zrotation
					JOINT newVegas:LeftToeBase
					{
						OFFSET 0.943001 -26.722000 15.023500
						CHANNELS 3 Xrotation Yrotation Zrotation
						End Site
						{
							OFFSET 0.000000 30.670183 0.000000
						}
					}
				}
				JOINT newVegas:Left_PantLeg
				{
					OFFSET 0.663870 -9.044666 -1.108900
					CHANNELS 3 Xrotation Yrotation Zrotation
					End Site
					{
						OFFSET 1.415995 20.635357 0.000000
					}
				}
			}
		}
		JOINT newVegas:RightUpLeg
		{
			OFFSET -18.735201 -5.666702 -4.541200
			CHANNELS 3 Xrotation Yrotation Zrotation
			JOINT newVegas:RightLeg
			{
				OFFSET 0.018946 -31.938133 0.493100
				CHANNELS 3 Xrotation Yrotation Zrotation
				JOINT newVegas:RightFoot
				{
					OFFSET -0.018946 -31.938126 -4.336299
					CHANNELS 3 Xrotation Yrotation Zrotation
					JOINT newVegas:RightToeBase
					{
						OFFSET -0.943001 -26.722004 15.023500
						CHANNELS 3 Xrotation Yrotation Zrotation
						End Site
						{
							OFFSET 0.000000 30.670187 0.000000
						}
					}
				}
				JOINT newVegas:Right_PantLeg
				{
					OFFSET -0.661674 -9.044716 -1.108900
					CHANNELS 3 Xrotation Yrotation Zrotation
					End Site
					{
						OFFSET -1.415958 20.635269 0.000000
					}
				}
			}
		}
	}
	JOINT newVegas:Spine
	{
		OFFSET 0.000000 10.199997 -0.299500
		CHANNELS 3 Xrotation Yrotation Zrotation
		JOINT newVegas:Spine1
		{
			OFFSET 0.000000 11.900002 -1.516600
			CHANNELS 3 Xrotation Yrotation Zrotation
			JOINT newVegas:Spine2
			{
				OFFSET 0.000000 13.600006 -2.842500
				CHANNELS 3 Xrotation Yrotation Zrotation
				JOINT newVegas:Neck
				{
					OFFSET 0.000000 9.624100 -2.890100
					CHANNELS 3 Xrotation Yrotation Zrotation
					JOINT newVegas:Head
					{
						OFFSET 0.000000 14.068802 -1.351900
						CHANNELS 3 Xrotation Yrotation Zrotation
						JOINT newVegas:Hair_Back
						{
							OFFSET 0.000000 3.231903 -17.524799
							CHANNELS 3 Xrotation Yrotation Zrotation
							End Site
							{
								OFFSET 0.000000 19.849884 0.000000
							}
						}
						JOINT newVegas:Hair_Front
						{
							OFFSET 0.000000 31.260406 4.573800
							CHANNELS 3 Xrotation Yrotation Zrotation
							JOINT newVegas:Hair_Front1
							{
								OFFSET 0.000000 2.284103 11.993300
								CHANNELS 3 Xrotation Yrotation Zrotation
								JOINT newVegas:Hair_Front2
								{
									OFFSET 0.000000 2.284103 11.993300
									CHANNELS 3 Xrotation Yrotation Zrotation
									End Site
									{
										OFFSET 0.000000 12.208862 0.000000
									}
								}
							}
						}
						JOINT newVegas:Jowel
						{
							OFFSET 0.000000 -7.458206 6.864100
							CHANNELS 3 Xrotation Yrotation Zrotation
							End Site
							{
								OFFSET 0.000000 19.849884 0.000000
							}
						}
					}
				}
				JOINT newVegas:LeftShoulder
				{
					OFFSET 15.263000 10.923401 -0.547700
					CHANNELS 3 Xrotation Yrotation Zrotation
					JOINT newVegas:LeftArm
					{
						OFFSET 25.438599 -2.830597 -13.032500
						CHANNELS 3 Xrotation Yrotation Zrotation
						JOINT newVegas:LeftForeArm
						{
							OFFSET 29.960503 0.000000 0.000000
							CHANNELS 3 Xrotation Yrotation Zrotation
							JOINT newVegas:LeftHand
							{
								OFFSET 27.849251 0.000000 0.000000
								CHANNELS 3 Xrotation Yrotation Zrotation
								JOINT newVegas:LeftHandThumb1
								{
									OFFSET 4.487587 -3.305161 6.305391
									CHANNELS 3 Xrotation Yrotation Zrotation
									JOINT newVegas:LeftHandThumb2
									{
										OFFSET 5.480453 -3.164139 3.164143
										CHANNELS 3 Xrotation Yrotation Zrotation
										JOINT newVegas:LeftHandThumb3
										{
											OFFSET 5.159721 -2.978973 2.978967
											CHANNELS 3 Xrotation Yrotation Zrotation
											End Site
											{
												OFFSET 2.494507 5.926697 1.738678
											}
										}
									}
								}
								JOINT newVegas:LeftHandIndex1
								{
									OFFSET 18.578728 -0.527832 5.208049
									CHANNELS 3 Xrotation Yrotation Zrotation
									JOINT newVegas:LeftHandIndex2
									{
										OFFSET 3.192009 0.000000 0.000000
										CHANNELS 3 Xrotation Yrotation Zrotation
										JOINT newVegas:LeftHandIndex3
										{
											OFFSET 3.835129 0.000000 0.000000
											CHANNELS 3 Xrotation Yrotation Zrotation
											End Site
											{
												OFFSET -0.034599 3.816971 0.371180
											}
										}
									}
								}
								JOINT newVegas:LeftHandMiddle1
								{
									OFFSET 18.476105 0.000000 0.000000
									CHANNELS 3 Xrotation Yrotation Zrotation
									JOINT newVegas:LeftHandMiddle2
									{
										OFFSET 3.324875 0.000000 0.000000
										CHANNELS 3 Xrotation Yrotation Zrotation
										JOINT newVegas:LeftHandMiddle3
										{
											OFFSET 4.596550 0.000000 0.000000
											CHANNELS 3 Xrotation Yrotation Zrotation
											End Site
											{
												OFFSET 0.057701 4.578827 0.399218
											}
										}
									}
								}
								JOINT newVegas:LeftHandRing1
								{
									OFFSET 17.732719 0.121887 -4.201567
									CHANNELS 3 Xrotation Yrotation Zrotation
									JOINT newVegas:LeftHandRing2
									{
										OFFSET 2.733170 0.000000 0.000000
										CHANNELS 3 Xrotation Yrotation Zrotation
										JOINT newVegas:LeftHandRing3
										{
											OFFSET 3.178268 0.000000 0.000000
											CHANNELS 3 Xrotation Yrotation Zrotation
											End Site
											{
												OFFSET 0.119102 3.170624 0.185394
											}
										}
									}
								}
								JOINT newVegas:LeftHandPinky1
								{
									OFFSET 15.989624 -0.606689 -7.535461
									CHANNELS 3 Xrotation Yrotation Zrotation
									JOINT newVegas:LeftHandPinky2
									{
										OFFSET 2.538986 0.000000 0.000000
										CHANNELS 3 Xrotation Yrotation Zrotation
										JOINT newVegas:LeftHandPinky3
										{
											OFFSET 2.593102 0.000000 0.000000
											CHANNELS 3 Xrotation Yrotation Zrotation
											End Site
											{
												OFFSET -0.150902 2.584198 0.152708
											}
										}
									}
								}
							}
							JOINT newVegas:Left_Sleeve
							{
								OFFSET 0.267448 -0.649796 0.577675
								CHANNELS 3 Xrotation Yrotation Zrotation
								End Site
								{
									OFFSET 0.000000 15.991241 0.000000
								}
							}
							JOINT newVegas:Left_CapeC
							{
								OFFSET 15.715958 -8.608795 -6.935905
								CHANNELS 3 Xrotation Yrotation Zrotation
								JOINT newVegas:Left_CapeC1
								{
									OFFSET 0.000000 -8.688499 0.000000
									CHANNELS 3 Xrotation Yrotation Zrotation
									End Site
									{
										OFFSET 0.000000 8.688499 0.000000
									}
								}
							}
						}
						JOINT newVegas:Left_CapeB
						{
							OFFSET 26.118385 -8.608795 -7.079235
							CHANNELS 3 Xrotation Yrotation Zrotation
							JOINT newVegas:Left_CapeB1
							{
								OFFSET 0.000000 -8.688499 0.000000
								CHANNELS 3 Xrotation Yrotation Zrotation
								End Site
								{
									OFFSET 0.000000 8.688499 0.000000
								}
							}
						}
						JOINT newVegas:Left_CapeA
						{
							OFFSET 5.115639 -8.608795 -10.395809
							CHANNELS 3 Xrotation Yrotation Zrotation
							JOINT newVegas:Left_CapeA1
							{
								OFFSET 0.000000 -8.688499 0.000000
								CHANNELS 3 Xrotation Yrotation Zrotation
								End Site
								{
									OFFSET 0.000000 8.688499 0.000000
								}
							}
						}
					}
				}
				JOINT newVegas:RightShoulder
				{
					OFFSET -15.263000 10.923401 -0.547700
					CHANNELS 3 Xrotation Yrotation Zrotation
					JOINT newVegas:RightArm
					{
						OFFSET -25.438599 -2.830597 -13.032500
						CHANNELS 3 Xrotation Yrotation Zrotation
						JOINT newVegas:RightForeArm
						{
							OFFSET -29.960503 0.000000 0.000000
							CHANNELS 3 Xrotation Yrotation Zrotation
							JOINT newVegas:RightHand
							{
								OFFSET -27.849251 0.000000 0.000000
								CHANNELS 3 Xrotation Yrotation Zrotation
								JOINT newVegas:RightHandThumb1
								{
									OFFSET -4.487587 -3.305161 6.305391
									CHANNELS 3 Xrotation Yrotation Zrotation
									JOINT newVegas:RightHandThumb2
									{
										OFFSET -5.480453 -3.164139 3.164143
										CHANNELS 3 Xrotation Yrotation Zrotation
										JOINT newVegas:RightHandThumb3
										{
											OFFSET -5.159721 -2.978973 2.978967
											CHANNELS 3 Xrotation Yrotation Zrotation
											End Site
											{
												OFFSET -2.494507 5.926697 1.738678
											}
										}
									}
								}
								JOINT newVegas:RightHandIndex1
								{
									OFFSET -18.578728 -0.527832 5.208049
									CHANNELS 3 Xrotation Yrotation Zrotation
									JOINT newVegas:RightHandIndex2
									{
										OFFSET -3.192009 0.000000 0.000000
										CHANNELS 3 Xrotation Yrotation Zrotation
										JOINT newVegas:RightHandIndex3
										{
											OFFSET -3.835129 0.000000 0.000000
											CHANNELS 3 Xrotation Yrotation Zrotation
											End Site
											{
												OFFSET 0.034599 3.816971 0.371180
											}
										}
									}
								}
								JOINT newVegas:RightHandMiddle1
								{
									OFFSET -18.476105 0.000000 0.000000
									CHANNELS 3 Xrotation Yrotation Zrotation
									JOINT newVegas:RightHandMiddle2
									{
										OFFSET -3.324875 0.000000 0.000000
										CHANNELS 3 Xrotation Yrotation Zrotation
										JOINT newVegas:RightHandMiddle3
										{
											OFFSET -4.596550 0.000000 0.000000
											CHANNELS 3 Xrotation Yrotation Zrotation
											End Site
											{
												OFFSET -0.057701 4.578827 0.399218
											}
										}
									}
								}
								JOINT newVegas:RightHandRing1
								{
									OFFSET -17.732719 0.121887 -4.201567
									CHANNELS 3 Xrotation Yrotation Zrotation
									JOINT newVegas:RightHandRing2
									{
										OFFSET -2.733170 0.000000 0.000000
										CHANNELS 3 Xrotation Yrotation Zrotation
										JOINT newVegas:RightHandRing3
										{
											OFFSET -3.178268 0.000000 0.000000
											CHANNELS 3 Xrotation Yrotation Zrotation
											End Site
											{
												OFFSET -0.119102 3.170624 0.185394
											}
										}
									}
								}
								JOINT newVegas:RightHandPinky1
								{
									OFFSET -15.989624 -0.606689 -7.535461
									CHANNELS 3 Xrotation Yrotation Zrotation
									JOINT newVegas:RightHandPinky2
									{
										OFFSET -2.538986 0.000000 0.000000
										CHANNELS 3 Xrotation Yrotation Zrotation
										JOINT newVegas:RightHandPinky3
										{
											OFFSET -2.593102 0.000000 0.000000
											CHANNELS 3 Xrotation Yrotation Zrotation
											End Site
											{
												OFFSET 0.150902 2.584198 0.152708
											}
										}
									}
								}
							}
							JOINT newVegas:Right_CapeC
							{
								OFFSET -15.715958 -8.608795 -6.935905
								CHANNELS 3 Xrotation Yrotation Zrotation
								JOINT newVegas:Right_CapeC1
								{
									OFFSET 0.000000 -8.688499 0.000000
									CHANNELS 3 Xrotation Yrotation Zrotation
									End Site
									{
										OFFSET 0.000000 8.688499 0.000000
									}
								}
							}
							JOINT newVegas:Right_Sleeve
							{
								OFFSET -0.267448 -0.649994 0.577675
								CHANNELS 3 Xrotation Yrotation Zrotation
								End Site
								{
									OFFSET 0.000000 15.991302 0.000000
								}
							}
						}
						JOINT newVegas:Right_CapeA
						{
							OFFSET -5.115540 -8.608795 -10.395824
							CHANNELS 3 Xrotation Yrotation Zrotation
							JOINT newVegas:Right_CapeA1
							{
								OFFSET 0.000000 -8.688499 0.000000
								CHANNELS 3 Xrotation Yrotation Zrotation
								End Site
								{
									OFFSET 0.000000 8.688499 0.000000
								}
							}
						}
						JOINT newVegas:Right_CapeB
						{
							OFFSET -26.118187 -8.608795 -7.079266
							CHANNELS 3 Xrotation Yrotation Zrotation
							JOINT newVegas:Right_CapeB1
							{
								OFFSET 0.000000 -8.688499 0.000000
								CHANNELS 3 Xrotation Yrotation Zrotation
								End Site
								{
									OFFSET 0.000000 8.688499 0.000000
								}
							}
						}
					}
				}
				JOINT newVegas:Left_Collar
				{
					OFFSET 18.625099 8.655502 8.828100
					CHANNELS 3 Xrotation Yrotation Zrotation
					JOINT newVegas:Left_Collar1
					{
						OFFSET 14.783401 10.540405 -1.259500
						CHANNELS 3 Xrotation Yrotation Zrotation
						End Site
						{
							OFFSET 0.000000 18.199875 0.000000
						}
					}
				}
				JOINT newVegas:Collar_Back
				{
					OFFSET 0.000000 15.630707 -20.132601
					CHANNELS 3 Xrotation Yrotation Zrotation
					End Site
					{
						OFFSET 0.000000 22.523010 0.000000
					}
				}
				JOINT newVegas:Left_Peck
				{
					OFFSET 17.239599 -5.132599 25.482599
					CHANNELS 3 Xrotation Yrotation Zrotation
					End Site
					{
						OFFSET 0.000000 22.523010 0.000000
					}
				}
				JOINT newVegas:Right_Peck
				{
					OFFSET -17.239599 -5.132202 25.482599
					CHANNELS 3 Xrotation Yrotation Zrotation
					End Site
					{
						OFFSET 0.000000 22.523010 0.000000
					}
				}
				JOINT newVegas:Right_Collar
				{
					OFFSET -18.625099 8.655792 8.828100
					CHANNELS 3 Xrotation Yrotation Zrotation
					JOINT newVegas:Right_Collar1
					{
						OFFSET -14.783401 10.539993 -1.259500
						CHANNELS 3 Xrotation Yrotation Zrotation
						End Site
						{
							OFFSET 0.000000 18.199631 0.000000
						}
					}
				}
			}
		}
		JOINT newVegas:Belly
		{
			OFFSET 0.000000 -6.540398 9.014299
			CHANNELS 3 Xrotation Yrotation Zrotation
			End Site
			{
				OFFSET 0.000000 11.566666 0.000000
			}
		}
	}
	JOINT newVegas:ElvisFacialAnim_Joint
	{
		OFFSET 1.000000 -95.330101 -8.825800
		CHANNELS 3 Xrotation Yrotation Zrotation
		End Site
		{
			OFFSET 0.000000 35.315800 0.000000
		}
	}
}
MOTION
Frames: 4
Frame Time: 0.033333
-1.683557 85.073921 4.796922 10.973150 -20.226897 9.389502 0.000001 -0.000001 0.000000 -51.783445 15.394200 6.588490 70.710373 -0.031013 -0.444331 -7.321334 3.778387 4.534383 0.000000 0.000000 -0.000001 -0.000002 0.000001 -0.000000 -53.335243 2.708705 9.998108 60.584782 1.804604 -6.587723 -16.323438 -4.258547 -5.056824 0.000000 0.000000 0.000000 -0.000001 -0.000000 -0.000001 19.966014 -9.044356 -3.838854 4.267276 -2.265751 -1.715063 4.320596 -2.188962 -1.633768 0.893105 0.643554 0.726924 0.893118 0.643567 0.726922 0.000002 0.000000 0.000001 0.893118 0.643552 0.726924 0.893195 0.643568 0.726919 -0.000003 -0.000001 -0.000000 0.000002 0.000000 0.000000 9.806604 -14.958457 -10.187610 -29.625143 4.373786 -48.473829 -0.000108 -80.349553 -0.000112 -136.764088 10.135348 15.867742 22.170261 -26.955840 21.639062 -18.755209 11.865872 -5.299202 0.000001 -0.000002 -0.000003 2.920523 7.536229 -72.179609 2.284158 4.641122 -52.390017 -0.000003 -0.000001 -0.000000 2.715248 7.456475 -71.638719 3.021125 5.123234 -61.032788 0.000001 0.000002 -0.000001 1.332022 7.030558 -72.173899 3.334035 5.283691 -64.482245 -0.000002 0.000003 0.000003 -0.352185 7.368816 -81.773736 1.697273 4.124403 -44.721814 -0.000000 -0.000003 0.000000 0.000001 0.000002 -0.000004 0.000001 0.000002 -0.000004 0.000000 0.000003 -0.000004 -0.000001 -0.000001 0.000000 -0.000001 -0.000001 -0.000002 -0.000001 -0.000001 0.000000 -0.000002 -0.000001 0.000000 -0.740842 19.336887 19.220960 -1.631440 36.102160 30.408767 0.000248 104.084235 -0.000263 -29.791800 -32.691908 7.100491 52.323603 29.641915 -26.183149 42.378295 -24.930013 37.205157 -0.000001 0.000000 -0.000002 -2.012446 2.205790 21.312820 2.896816 -4.312342 67.768973 0.000002 0.000003 -0.000002 13.456671 -8.790152 78.781888 5.608638 -4.559124 101.801442 -0.000001 0.000000 -0.000001 8.262329 -7.055081 88.116045 5.520479 -4.576600 100.694262 -0.000002 -0.000001 0.000001 4.707892 -6.937678 92.892075 2.523290 -4.140470 62.703664 0.000000 -0.000000 -0.000000 -0.000003 0.000001 0.000000 -0.000003 -0.000000 -0.000001 -0.000003 0.000001 0.000000 -0.000000 0.000001 0.000001 0.000000 0.000001 0.000002 -0.000000 0.000001 0.000001 -0.000000 0.000001 0.000002 0.000001 0.000000 -0.000000 0.000001 0.000000 -0.000000 0.000001 0.000000 -0.000000 0.000001 0.000000 -0.000000 0.000001 0.000000 -0.000000 0.000001 0.000000 -0.000000 0.000001 0.000000 -0.000000 -0.000000 0.000001 -0.000001 0.000001 -0.000001 0.000000 
-2.092901 85.425690 6.334990 10.982562 -20.031029 9.719849 -0.000000 -0.000002 -0.000000 -52.919947 14.814071 6.556092 66.573553 -0.247529 0.051267 -10.610837 4.906020 3.643675 -0.000000 0.000000 -0.000000 -0.000002 0.000002 -0.000001 -51.672276 2.867730 9.405576 60.701025 1.734809 -6.636139 -18.064549 -3.978178 -5.201744 0.000000 0.000001 -0.000000 0.000000 -0.000000 -0.000000 19.901604 -9.115296 -4.305332 4.247014 -2.265766 -1.778423 4.301879 -2.188967 -1.699776 0.872754 0.624673 0.723150 0.872758 0.624684 0.723142 0.000002 -0.000001 0.000000 0.872680 0.624656 0.723150 0.872784 0.624721 0.723139 -0.000000 -0.000001 0.000001 0.000002 -0.000001 -0.000000 9.806219 -14.914157 -10.211288 -29.779471 4.325133 -48.369381 -0.000002 -80.252899 -0.000008 -136.638153 10.206409 15.788235 22.145471 -26.894449 21.573354 -18.755208 11.865872 -5.299204 0.000001 0.000000 0.000001 2.924080 7.538265 -72.218944 2.283237 4.640414 -52.378658 0.000001 -0.000002 -0.000001 2.718727 7.458633 -71.677774 3.021119 5.123248 -61.032788 -0.000001 -0.000001 0.000000 1.320654 7.029151 -72.215071 3.334043 5.283692 -64.482245 0.000001 0.000003 0.000002 -0.363537 7.371320 -81.816261 1.696436 4.123541 -44.710087 -0.000001 0.000000 -0.000001 -0.000000 0.000001 -0.000001 -0.000000 0.000001 -0.000001 -0.000001 0.000001 -0.000001 0.000001 0.000001 -0.000001 0.000001 0.000000 -0.000001 0.000001 0.000001 -0.000001 -0.000000 0.000000 -0.000001 -0.722521 19.397730 19.106940 -1.705477 36.168734 30.550343 0.000310 103.869446 -0.000335 -29.680044 -32.287103 7.135133 52.323603 29.641908 -26.183149 42.378298 -24.930008 37.205161 0.000001 -0.000005 0.000001 -2.012448 2.205790 21.312816 2.896813 -4.312344 67.768973 0.000001 -0.000001 0.000003 13.456668 -8.790157 78.781888 5.608644 -4.559126 101.801442 -0.000000 -0.000001 -0.000001 8.262332 -7.055086 88.116045 5.520469 -4.576594 100.694269 0.000001 0.000001 -0.000006 4.707891 -6.937681 92.892075 2.523296 -4.140471 62.703664 -0.000000 -0.000000 -0.000001 -0.000004 0.000000 -0.000000 -0.000001 -0.000000 -0.000002 -0.000004 0.000000 -0.000000 -0.000000 0.000001 0.000001 0.000000 0.000002 0.000002 -0.000000 0.000001 0.000001 0.000000 0.000002 0.000002 0.000000 -0.000001 0.000002 0.000000 -0.000001 0.000002 0.000000 -0.000001 0.000002 0.000000 -0.000001 0.000002 0.000000 -0.000001 0.000002 0.000000 -0.000001 0.000002 0.000000 -0.000001 0.000002 0.000001 -0.000001 0.000001 -0.000000 -0.000002 -0.000000 
-2.416380 85.621193 7.892313 11.129582 -19.790290 10.085106 0.000001 0.000000 -0.000000 -54.108325 14.319659 6.398271 61.800610 -1.360808 0.625509 -13.001749 6.997729 3.128734 0.000001 -0.000000 -0.000000 -0.000002 0.000000 0.000000 -50.302212 3.007918 8.788159 61.144618 1.858397 -6.687580 -19.975585 -4.052098 -5.350267 0.000000 -0.000000 0.000000 0.000001 0.000000 -0.000000 19.833206 -9.167997 -4.728530 4.227325 -2.256551 -1.840019 4.282986 -2.188956 -1.762231 0.842063 0.623699 0.716518 0.842054 0.623694 0.716524 0.000001 -0.000003 0.000001 0.842051 0.623716 0.716513 0.841987 0.623700 0.716518 0.000000 -0.000001 0.000000 0.000001 -0.000003 0.000001 9.800105 -14.862989 -10.244260 -29.868885 4.289517 -48.294068 0.000132 -80.545559 0.000120 -136.497301 10.127284 15.869554 22.496348 -27.318397 22.379501 -18.755209 11.865872 -5.299208 0.000000 -0.000001 -0.000001 2.872610 7.508405 -71.648295 2.288298 4.644304 -52.441154 -0.000004 0.000001 -0.000001 2.667998 7.426711 -71.106668 3.023240 5.124410 -61.056714 -0.000002 -0.000000 -0.000001 1.342281 7.004660 -71.624949 3.334038 5.283690 -64.482252 -0.000000 0.000006 0.000002 -0.346372 7.315559 -81.211735 1.700383 4.127530 -44.765019 -0.000002 -0.000003 0.000002 -0.000001 -0.000001 0.000003 -0.000001 -0.000001 0.000003 -0.000002 -0.000000 0.000003 0.000001 -0.000002 -0.000003 0.000001 -0.000002 -0.000003 0.000001 -0.000002 -0.000003 -0.000001 -0.000002 -0.000003 -0.706693 19.453171 19.008153 -1.750626 36.044162 30.599927 0.000751 104.063581 -0.000741 -29.644052 -32.073820 7.023811 52.323603 29.641908 -26.183151 42.378295 -24.930008 37.205157 -0.000000 -0.000000 -0.000001 -2.012450 2.205783 21.312820 2.896818 -4.312345 67.768973 -0.000000 0.000000 0.000002 13.456668 -8.790155 78.781888 5.608640 -4.559127 101.801442 -0.000000 0.000003 -0.000002 8.262331 -7.055086 88.116045 5.520472 -4.576602 100.694269 -0.000001 0.000001 0.000001 4.707894 -6.937681 92.892075 2.523289 -4.140467 62.703671 -0.000003 0.000005 -0.000000 -0.000002 0.000000 -0.000002 -0.000002 -0.000001 -0.000002 -0.000002 0.000000 -0.000002 0.000002 0.000001 -0.000000 0.000002 0.000002 -0.000000 0.000002 0.000001 -0.000000 0.000002 0.000002 -0.000000 0.000002 0.000001 0.000001 0.000002 0.000001 0.000001 0.000002 0.000001 0.000001 0.000002 0.000001 0.000001 0.000002 0.000001 0.000001 0.000002 0.000001 0.000001 0.000002 0.000001 0.000001 -0.000000 -0.000003 -0.000000 0.000001 0.000000 -0.000000 
-2.623124 85.610664 9.530432 11.155601 -19.732640 10.267325 -0.000000 0.000002 -0.000001 -55.249728 14.147889 6.371246 56.947676 -2.088449 1.209547 -13.626662 8.168765 2.704305 0.000000 0.000000 -0.000000 -0.000000 -0.000001 -0.000000 -49.020630 3.187638 8.290605 62.016478 2.073979 -6.709445 -22.077442 -4.220595 -5.424395 0.000000 -0.000001 0.000000 -0.000001 0.000001 -0.000001 19.724015 -9.164278 -5.007225 4.206941 -2.240940 -1.880484 4.262824 -2.176171 -1.804015 0.818604 0.628330 0.711045 0.818605 0.628318 0.711043 -0.000000 0.000001 0.000000 0.818578 0.628326 0.711040 0.818607 0.628349 0.711036 0.000003 0.000000 -0.000002 -0.000000 0.000001 -0.000000 9.788885 -14.794661 -10.263704 -30.016257 4.266576 -48.170404 -0.000069 -80.604859 -0.000086 -136.433917 10.108296 16.029330 22.909880 -27.777362 23.308430 -18.755211 11.865875 -5.299199 0.000001 -0.000001 0.000001 2.813451 7.473231 -70.988390 2.293930 4.648607 -52.510716 0.000001 0.000000 0.000001 2.609928 7.389274 -70.448067 3.025393 5.125601 -61.080845 -0.000002 0.000001 -0.000002 1.359042 6.974922 -70.947552 3.334043 5.283690 -64.482245 0.000001 -0.000001 -0.000002 -0.335946 7.251290 -80.520492 1.704255 4.131394 -44.818557 -0.000004 -0.000003 0.000003 0.000000 0.000001 0.000002 0.000000 0.000001 0.000002 -0.000001 0.000001 0.000002 0.000001 0.000001 0.000001 0.000001 0.000000 0.000000 0.000001 0.000001 0.000001 -0.000001 -0.000000 0.000001 -0.704755 19.493423 18.967333 -1.858600 36.151829 30.647120 -0.000180 103.938725 0.000186 -29.760668 -31.877429 6.961007 52.323600 29.641915 -26.183143 42.378298 -24.930009 37.205154 -0.000000 0.000000 -0.000000 -2.012448 2.205783 21.312816 2.896815 -4.312346 67.768966 -0.000002 -0.000000 0.000003 13.456670 -8.790161 78.781888 5.608637 -4.559127 101.801442 0.000001 0.000002 -0.000003 8.262329 -7.055091 88.116045 5.520473 -4.576594 100.694276 -0.000001 0.000006 -0.000002 4.707893 -6.937684 92.892082 2.523293 -4.140469 62.703664 -0.000001 -0.000002 -0.000002 -0.000002 -0.000000 0.000002 -0.000001 -0.000000 0.000002 -0.000001 -0.000000 0.000002 -0.000000 -0.000001 -0.000000 0.000000 0.000000 -0.000000 -0.000000 -0.000001 -0.000000 0.000000 -0.000000 -0.000000 0.000003 -0.000000 -0.000000 0.000003 -0.000000 -0.000000 0.000003 -0.000000 -0.000000 0.000003 -0.000000 -0.000000 0.000003 -0.000000 -0.000000 0.000003 -0.000000 -0.000000 0.000003 -0.000000 -0.000000 0.000001 0.000002 -0.000001 -0.000000 0.000002 -0.000001 
